<svg id="Layer_2" data-name="Layer 2" xmlns="http://www.w3.org/2000/svg" viewBox="0 0 3700.08 927.13">
  <g id="Layer_1-2" data-name="Layer 1">
    <path d="M865.31,184.52c-21.71-46.3-46.37-85.3-83.13-117.73-28.44-27.62-60.92-47.93-97.35-64.64,3.07-3.99,7.09-1.22,11.19-1.21l169.98.13-.69,183.46Z"/>
    <path d="M2982.54,262.29c-59.45,27.38-141.18,18.4-186.61-31.09-41.97-45.72-41.59-114.34.01-160.39,47.92-53.05,142.47-59.42,201.54-23.57,35.95,21.82,58.56,58.02,59.78,100.54,1.44,50.2-28.65,93.29-74.72,114.51ZM2955.15,216.89c30.17-17.36,44.37-50.85,36.56-83.95-7.3-30.92-33.66-54.52-67.25-58.58-21.92-2.65-44.68,1.27-63.81,13.95-25.55,16.94-37.41,48.8-30.93,79.28,5.88,27.62,28.19,50.89,57.96,57.91,22.87,5.39,46.24,3.62,67.47-8.6Z"/>
    <path d="M2272.31,170.94l-124.31.46.24,55.54,145.76.16-.34,45.84-201.22.1c-1.47,0-6.2-1.37-6.42-2.79-.28-1.78-.02-4.48-.02-7.78l.14-233.53,201.86.1-.14,45.9-139.86.17.29,51.83,123.71.27.31,43.73Z"/>
    <path d="M1999.22,187.18c-16.45,8.57-33.92,14.45-52.18,14.76l-76.04,1.28-.52,69.72-62.48-.2-.03-243.8,137.26.8c22.72.13,43.65,8.7,62.13,19.53,17.48,11.87,27.53,28.37,32.16,48.56,8.25,35.94-6.33,71.65-40.32,89.35ZM1970.48,139.24c12.35-15.93,9.48-38.85-5.29-51.08-8.85-7.33-21.78-12.18-33.41-12.22l-61.78-.19.05,81.13c31.76-1.59,79.98,8.73,100.43-17.64Z"/>
    <path d="M2666,75.4l-.26,196.54-61.74.5-.12-196.5-85.88-.9.46-46.1h232.6c-.85,14.41-.95,26.24.44,37.68.25,2.03-1.99,8.31-4.12,8.32l-81.38.46Z"/>
    <path d="M2536,225.24l.16,35.56c.01,2.95,1.59,12.13-3.12,12.14l-193.04.1-.04-243.1,62.04-.46-.04,195.46,134.04.3Z"/>
    <path d="M3423.55,277l-33.77-25.94c-44.63,33.99-129.24,36.68-174.12.51-25.49-20.54-28.94-56.09-8.84-81.77,11.62-14.85,26.34-23.71,44.6-32.76l-13.24-16.31c-10.77-13.27-15.3-30.8-10.72-48.6,3.4-13.23,13.61-27.75,29.04-35.17,44.11-21.21,122.04-15.41,131.18,34.05,6.87,37.19-19.88,53.45-50.51,72.25l47.62,40.61c8.78-10.67,12.13-22.45,16.26-37.59l48.02,12.73c-3.23,21.51-13.38,37.42-24.39,55.81l32.55,27.79-33.67,34.4ZM3330.63,96.94c9.25-8.94,6.6-22.79-3.3-29.38-11.02-7.34-26.17-5.92-36.77,1.93-8.78,6.49-11.96,18.97-4.51,27.85,5.1,6.08,10.38,11.24,16.55,17.38,10.06-4.75,19.68-9.71,28.03-17.78ZM3351.85,218.94l-64.3-52.95c-17.02,6.88-39.82,26.51-29.93,45.62,16.15,31.21,69.71,26.76,94.23,7.33Z"/>
    <path d="M3037,632.94v-142.03l-78.85,115.19c-8.52,1.38-22.43,2.88-30.58-.14-29.22-35.74-48.94-76.8-78.57-112.77v138.75h-61v-242.06c35.67,5.21,48.29-9.92,60.88,8.8l93.74,139.45,92.12-140.15c3.41-5.18,7.09-8.04,13.26-9.16l46.99,1.25v242.86h-58Z"/>
    <path d="M3700.08,631.94h-52.04l-133.04-145.19v145.19l-63,.33.06-242.73c19.97-.95,34.43-1.1,54,.08l127.47,141.14c1.59,1.77,4.47-1.22,4.47-2.54v-138.1c21.01-1.62,39.72-1.79,62-.69l.08,242.5Z"/>
    <path d="M2258.14,632.63l-50.3-69.68-50.49-.2c-2.27,0-7.34,3.46-7.34,5.92l-.14,64.28-61.86-.73.03-243.27,121.05.45c29.89.11,58.9,5.17,82.46,23.8,17.4,13.29,27.02,31.41,29.63,53.02,4.57,37.83-15.48,71.5-53.83,85.87l58.94,79.86-68.14.68ZM2258.37,474.25c-1.12-20.6-21.63-37.28-41.75-37.31l-65.61-.09-.28,80.09,68.19-.08c14.22-.02,40.92-15.72,39.46-42.61Z"/>
    <path d="M2017.43,427.74l-69.76,68.58,114.86,135.59c-26.29,1.89-49.19,1.46-72.91.69l-83.2-96.31-35.42,34.36-.44,62.3-62.56.13v-243.13h62v109.33l76.99-73.42,37.9-36.09c20.74,1.24,39.7,1.51,60.03.31,3.68-.22,6.83-.1,8.94,2.21l-36.43,35.45Z"/>
    <path d="M3336.07,580.94h-126.18s-23.19,52-23.19,52l-64.72-.39,119.14-242.61,62.85-.64c3.87,4.12,6.51,9.56,9.23,15.03l113.71,228.61-66.09.27-24.74-52.27ZM3315.29,536.76l-21.86-47.35-20.37-42.45-42.04,89.98,84.28-.18Z"/>
    <path d="M2546.86,580.94l-118.81-.39c-3.17-.01-8.24,3.58-9.34,6.06l-20.49,46.33-63.4-.2,12.84-28.55,101.51-208.13c1.97-4.03,6.76-7.12,10.7-7.13l48.19-.14c9.51-.03,10.63,4.36,14.37,11.87l114.96,230.8-65.88,1.17-24.65-51.7ZM2526.56,536.83l-17.58-37.3-25.04-53.01-41.28,90.43,83.9-.11Z"/>
    <rect x="2664" y="388.94" width="64" height="244"/>
    <g>
      <path d="M834.24,336.85c-12.26,158.08-118.54,245.06-264.61,282.02-39.39,7.66-77.44,14.94-118.13,15.07l-226.5.74-.17,282.26-224.83-.08L.04.94l447.61-.1c56.68-.01,110.07,7.58,163.51,24.59,52.74,15.02,99.67,40.72,139.59,78.45,61.96,58.56,90.04,148.65,83.5,232.97ZM576.44,414.3c31.95-36.5,40.85-84.41,32.7-130.75-6.51-36.99-25.81-68.6-57.6-88.54-33.58-21.06-71.49-30.86-111.56-30.61l-20.36-1.46h-195.62s-.08,306-.08,306l217.56-.86c43.08-.17,104.16-18.58,134.97-53.78Z"/>
      <path d="M911.29,625.37l-45.29,44.19.02,247.39-224.02-.09.18-269.97c53.87-20.29,100.1-47.55,140.87-84.73,45.9-44.16,77.31-98.07,93.65-159.34l40.14-39.16,62.01-59.99,65.03-62.9,51-49.08,51.99-50.03,69.99-67.95,47.99-45.93,21.96-20.82,256.65.11c-12.49,14.97-23.65,24.44-35.6,36l-62.02,59.99-79.95,77.95-90.12,88.1-138.85,135.51,99.25,118.05,107.46,128.65,222.1,265.63-267.72.4-307.54-367.8-79.17,75.82Z"/>
    </g>
    <path d="M2915.46,924.06l-31.94-41.12-46.72.11-1.04,39.86c-5.01,2.21-12.32,2.15-19.76.63l-.09-130.6,73.89.36c12.43.06,26.87,7.72,34.77,16.35,10.33,11.29,12.91,26.88,8.69,40.99-3.74,12.48-13.8,21.71-29.63,28.27l33.7,44.07c-7.29,1.89-15.42,2.28-21.86,1.07ZM2915.28,834.6c-4.48-34.78-52.53-24.07-78.28-25.62l-.3,57.81c18.26.4,34.2,1.18,50.98-.54,16.05-1.65,29.75-14.91,27.6-31.66Z"/>
    <path d="M3683.28,864.94l-74.67.58c-.62,15.82-.61,28.8.42,43.42l84.26.18c5.21,1,5.38,15.81-.22,15.82l-105.06.16-.1-132.16,104.71-.09c2.28,3.34,2.24,9.41,1.05,15.09l-84.66.05.12,40.95,73.73.35c3.25,3.12,3.46,11.31.43,15.65Z"/>
    <path d="M2708.64,864.94l-73.64.33-.19,43.67,86.85.22c3.69,3.24,3.6,12.53-.13,15.78l-100.84.19c-1.54,0-6.12-1.45-6.62-2.83-.62-1.73-.06-4.62-.06-7.7l-.13-121.66,102.9-.09c2.09,3.41,2.16,9.56,1.06,15.09l-79.84.19c-2.28,0-4.85,4.43-4.72,6.6.66,10.95.39,21.28.03,34.21l72.73.52c2.87,3.44,3.72,9.23,2.61,15.48Z"/>
    <path d="M1917.97,890.94l-79.6-.22-16.82,31.85c-3.58,3.68-15.24,2.73-20.9.12l64.94-128.84c5.45-4.31,17.99-4.43,23.55-.37l66.7,129.19c-6.86,2.54-14.8,2.61-20.84,1.18l-17.02-32.91ZM1848.46,876.45c22.81.45,39.1,1.02,61.27-1.21l-29.21-58.96c-.44-.89-3.36-3.3-3.67-2.81s-1.67,2.18-2.03,2.9l-26.16,52.62c-1.02,2.05-1.98,7.42-.2,7.46Z"/>
    <path d="M2503.76,917.18c-26.04,15.24-74.49,12.35-98.02-8.89,2.6-4.55,5.37-8.62,8.97-13.15,22.11,20.34,84.88,23.06,85.34-5.11.09-5.34-5.69-14.7-12.47-16.43l-50.78-13c-13.63-3.49-24.59-13.34-26.64-24.92-2.76-15.57,2.91-28.58,16.35-36.37,20.99-12.16,64.24-11.72,84.25,1.78,4.23,2.85-1.22,14.55-5.96,14.94-18.75-12.43-75.63-16.14-74.84,11.92.21,7.33,6.75,14.25,14.73,16.4l51.7,13.9c13.56,3.65,22.18,14.57,23.58,26.24,1.6,13.4-4.17,25.62-16.23,32.68Z"/>
    <path d="M3388.3,884.05c21.19,31.69,64.63,34.38,92.19,10.87,5.26-.82,13.03,6.27,13.36,12.03-30.74,27.01-78.7,26.56-110.2.81-28.36-23.19-31.02-63.1-7.69-90.81,28.16-33.44,89.08-35,118.56-5.85-4.14,4.91-8.6,8.82-14.17,11.78-27.71-25.23-72.67-20.69-92.58,11.54-8.6,13.92-9.07,35.29.52,49.63Z"/>
    <path d="M3139.21,794.64c5.27-2.87,14.33-2.37,21.91-.47l-64.25,129.65c-6.82,1.81-14.68,1.79-21.46.09l-63.76-130.25c8.48-.73,14.41-.77,21.96-.29l52.88,108,52.72-106.72Z"/>
    <path d="M2139.49,909.53c3.84.6,3.3,12.49-.34,15.41l-94.78-.12c-4.36,0-2.36-9.14-2.37-12.33l-.14-116.12c5.75-1.26,11.25-1.33,20.14-.87l.45,113.44,77.04.59Z"/>
    <path d="M2328.55,909.3c3.89,1.64,3.25,12.08.03,15.64l-98.58.19-.31-130.86,20.31-.45.35,115.11,78.2.36Z"/>
    <rect x="3244.01" y="792.94" width="21.98" height="132"/>
  </g>
</svg>