<svg xmlns="http://www.w3.org/2000/svg" data-name="Layer 1" viewBox="0 0 2825 831"><path d="m1781 421.53.26 49.65-42.26-.85.87-180.33 89.72.7c34.83.27 62.81 23.02 67.43 55.76 4.11 29.16-8.52 54.02-37.12 66.45l40.44 58.1-44.24.05-34.06-48.43c-11.14-2.95-28.22-2.16-41.04-1.09Zm.6-34.78c19.96.83 37.83 1.65 54.08-2.44 17.39-4.38 21.75-20.75 19.24-35.86-5.11-30.78-49.83-25.93-72.92-23.6zM2296.95 193.99c-53.29.8-97.14-41.75-97.94-95.04s41.75-97.14 95.04-97.94 97.14 41.75 97.94 95.04-41.75 97.14-95.04 97.94m-.16-38.63c32.18-.48 57.87-26.96 57.39-59.14s-26.96-57.87-59.14-57.39-57.87 26.96-57.39 59.14 26.96 57.87 59.14 57.39M2523.28 19.64c27.35-25.01 83.63-17.68 92.21 14.04 7.69 28.46-9.3 41.56-32.03 59.4l29.54 28.64c7.24-4.13 9.85-12.74 11.46-25.28l31.26 8.25c-2.89 15.4-7.24 26.6-15.63 40.14l20.3 22.18-20.39 25.27-22.15-21c-31.02 22.36-70.22 27.33-103.75 9.55-21.08-11.18-31.13-35.24-21.51-57.77 6.68-15.66 21.32-26.04 36.13-36.21-18.78-18.97-25.65-48.7-5.41-67.21Zm9.93 131.53c18.62 14.24 43.17 10.81 60.63-2.16l-42.21-39.92c-7.79 2.2-16.52 10.15-20.7 16.93-3.41 5.53-4.41 20.04 2.28 25.15m42.8-89.66c6.99-4.79 9.08-17.91 5-23.73-3.35-4.78-14.68-7.66-20.58-5.2-6.52 2.71-12.87 7.41-14.21 11.68-4.19 13.34 13.27 28.59 17.53 25.67l12.26-8.41ZM1549.03 290H1589v83.25l82.04-82.28c11.87-2.45 25.08-2.56 44.04.05l-72.96 79.25 78.09 100.72h-47.64l-57.83-71.68-24.73 26.02-.39 45.66-41.61.29 1.03-181.29ZM1779 111l.3 43 98.74.79.79 32.21-141.83-.38V5h136.54l.7 34H1778v39h84.1l1.74 33zM1590.68 186l-40.68-.35.09-180.95c53.01 2.67 144.46-15.38 155.68 53.55 4.81 29.56-7.46 59.73-38.38 70.75-23.9 8.53-47.13 7.9-75.29 7.19l-1.42 49.8Zm.14-83.9c17.48.12 33.53.43 47.99-1.45 16.99-2.21 26.92-17.46 26.3-30.75-1.85-39.46-48.74-30.98-75.12-31.31l.82 63.51ZM1967.39 431.72l-17.99 37.87c-12.4.89-27.14.77-40.99-.15l80.64-179.45 40.18-.4 80.36 180.44-41.62 1.17-15.99-38.21-84.58-1.28Zm12.62-31.72 58.36.84-29.14-69.69-29.21 68.85ZM2088 189.4l.85-149.4-57.85-.98.54-33.02 157.18-.12.66 34.12-59.38-.01-.78 148.18zM1911.23 4.83c14.25-2.09 27.89-1.85 41.77-.03l-.37 148.2 91.09 1.03.73 32.97-133.45.15zM2129 471.02l.72-180.02 41.28-.13-1.02 180.13zM2211.93 714.84c0 5-17.93 4.36-17.93.03l-.05-137.11c22.68-1.29 43.37-2.99 62.44 5.08 14.58 6.17 18.57 24.7 18.62 38.66.05 14.31-7.5 26.89-21.67 36.95l26.69 57.75c-1.82 1.57-12.64 3.57-15.88 2.11-3.88-1.76-6.23-7.96-8.9-13.96l-18.84-42.34-24.4.08-.07 52.76Zm-.65-68.83c12.38 1.1 28.59 2.29 37.93-5.63 11.77-9.97 10.59-35.14-3-43.12-9.34-5.49-24.45-4.72-35.21-3.87zM1913.31 684.34c-.75-4.36 11.83-8.49 14.29-5.82 2.49 2.7 4.99 7.67 7.83 13.61 7.08 14.84 31.7 19.81 42.79 5.58 3.87-4.97 4.2-20.64.82-25.86-12.81-19.78-56.83-17.6-61.15-52.59-3.01-24.32 17.17-42.49 38.48-43.42 24.28-1.06 42.75 16.57 44.26 42.16l-16.77-.2c-2.41-12.72-8.07-22.7-17.61-25.41-12.17-3.46-26.45.58-30.07 13.62-4.7 16.93 9.76 28.92 25.33 33.34 25.75 7.31 46.36 30.28 36.4 57.4-6.9 18.8-27.25 24.31-45.73 23.48-16.9-.76-35.46-15.96-38.87-35.89M2731.43 653.67l1.33 50.33 57.89.41.31 15.59-76.96-1.28 1.22-140.61c15.3-1.48 63.02-1.71 73.68 3.7 2.41 1.22-.38 11.18-3.04 11.19l-54.05.24.85 46.2 40.03-1.28c2.74-.09 7.8 2.64 9.62 3.97 2.4 1.76-1.83 11.91-4.93 11.89l-45.96-.33ZM2074.8 702.81l47.67 1.45c2.82.09 9.81.08 9.87 2.3l.23 8.74c.06 2.21-7.4 3.71-10.03 3.71l-66.53-.1.94-141.9 64.27-.31c3.03-.01 10.33 3.2 12.17 5.24 1.85 2.04.42 9.8-2.35 9.85l-56.02.98.69 46.25 40.38-.34c2.51-.02 8.43 2 10.36 3.3 2.57 1.73-.72 12.07-4.37 12.04l-45.46-.31-1.8 49.12ZM1516.05 712.1c-.94 3.28-7.72 7.77-10.88 7.45-3.16-.31-6.5-8.9-5.26-12.71l40.24-123.18c1.28-3.92 8.43-8.25 11-7.35s6.85 5.46 7.8 8.43l42.17 132.3c-1.78 2.5-15.68 2.14-17.13-2.01L1572.44 682l-47.55-.71-8.85 30.82Zm12.83-45.92 40.72 1.42-20.06-63.18-20.67 61.76ZM2632.59 687.36c.62-4.48 1.79-12.32 4.38-12.58 2.6-.26 7.16-.49 9.78-.52s3.78 8.96 3.38 12.15c-2.34 18.59-17.85 32.07-35.57 34.01-18.68 2.04-39.54-5.43-46.72-26.05-8.91-25.6-8.88-56.68-2.65-82.31 6.08-24.98 24.6-35.91 46.1-36.6 23.01-.74 41.3 24.83 40.28 43.87-.23 4.2-11.7 6.95-13.56 4.27-8.23-11.82-4.73-31.97-28.51-32.39-39.59-.71-31.33 68.34-26.68 95.45 1.82 10.62 14.32 18.52 22.31 19.81 11.54 1.86 25.23-2.93 27.46-19.1ZM2323.72 581c2.09-2.09 12.15-4.98 14.65-3.16 3.12 2.28 4.96 7.78 6.62 13.49l27.97 96.18c3.83-7.39 4.96-12.29 7.14-19.7l23.63-80.43c1.25-4.26 3-8.56 5.71-9.35s11.82-1.37 12.19 1.43.17 10.54-.76 13.51l-36.92 117.98c-.94 2.99-6.97 8.01-9.88 8.74-3.49.87-10.21-4.86-11.51-9.22L2323.73 581ZM1671.6 578.77c1.29 41.58 2.59 83.17 3.88 124.23h50.11c2.45.64 7.9 6.59 7.29 8.82-.61 2.24-6.79 6.29-9.38 6.18h-65.56c.5-7.02-2.08-135.37 1.01-138.77.79-3.26 10.93-3.27 12.66-.46ZM1788.36 592.28c.06-5.72 1.25-11.96 2.46-14.58 1.51-3.27 14.16-.32 14.18 4.57l.49 121.63 44.7.93c3.06.06 7.51 2.9 8.94 4.76 1.42 1.85-2.78 9.44-5.65 9.41l-66.48-.74 1.36-125.97ZM2481 715.88l-.92-133.83c-.02-3.44 8.36-6.79 10.5-5.3s6.42 6.97 6.42 10.64l-.22 127.97c0 3.77-15.75 4.58-15.78.51ZM191.43 830 0 830.31V0h188.52l158.94 1 259.3 1H748l-1.27 389.26L1116.27 4l210.72.56-343.48 367.39L1343.27 830h-219.82l-264.9-325.34-111.36 114.73-1.19 55.93V831H556l1-176.69v-90.05C495.15 589.86 369.67 601 369.67 601l-177.67.65zm1.4-384 181.97 1.55 59.98-12.03c61.17-18.47 94.14-70.32 94.63-132.54s-27.37-109.2-83.81-131.24c-32.27-12.6-66.76-15.64-102.32-15.74L194 155.59zM2254.64 367.92l-2.7 104.28-36.94-1.81.1-180.39h33.09l68.79 113.1 67.26-112.1h33.75v181.2l-38-.94-1.26-106.47-53.03 86.13c-4.95 8.04-21.07-1.07-24.49-6.95-15.14-26.04-27.32-47.03-46.58-76.05ZM2660 472.12l-.05-180.02c11.1-1.96 24.4-2.14 35.16.16l81.22 100.69c1.87 2.31 6.64 4.12 8.61 4.37s.04-7.31.06-10.04l.55-94.75c12.26-2.17 25.41-1.7 39.45.58l-.97 178.33c-11.47.88-24.26.8-34.56-.88l-86.88-106.4-1.9 107.83-40.69.12ZM2497.99 433.96l-14.55 37.17c-13.78 1.41-29.04.94-42.14-.86l78.23-175.79c14.18-1.15 27.48-1.18 41.6.02l78.91 178.5-42.26-.62-16.52-38.38-83.29-.04Zm12.88-31.96 58.59-.18-29.72-68.65-28.86 68.83Z"/><circle cx="1946" cy="171" r="7"/></svg>